# xmcd
#
# Track frame offsets: 
#        150
#        4091
#        16589
#        32826
#        48093
#        63161
#        74475
#        90297
#        106227
#        120910
#        137708
#
# Disc length: 2022 seconds
#
# Revision: 0
# Processed by: cddbd v1.5.2PL0 Copyright (c) Steve Scherf et al.
# Submitted via: ExactAudioCopy v1.0b4
#
DISCID=7a07e40b
DTITLE=Brother Dege - SCORCHED EARTH POLICY
DYEAR=2015
DGENRE=Blues
TTITLE0=SCORCHED EARTH POLICY
TTITLE1=SET IT OFF
TTITLE2=DAY I  WAS BORN
TTITLE3=YELLABONE
TTITLE4=TOWER OF BABEL
TTITLE5=REVOLUTION
TTITLE6=THE ZATAN BOYS
TTITLE7=JONES FOR WAR
TTITLE8=SPEAKING TONGUES
TTITLE9=BOMBS AWAY
TTITLE10=WAY OF THE LAMB
EXTD=
EXTT0=
EXTT1=
EXTT2=
EXTT3=
EXTT4=
EXTT5=
EXTT6=
EXTT7=
EXTT8=
EXTT9=
EXTT10=
PLAYORDER=
